<svg xmlns="http://www.w3.org/2000/svg" width="24" height="24" viewBox="0 0 24 24" fill="none">
<path d="M22.2819 9.8211C22.5498 8.90227 22.5498 7.9373 22.2819 7.01847C21.6406 4.69332 19.6241 3.00868 17.2335 2.77018C16.3036 2.68456 15.3647 2.81775 14.4938 3.15669C13.6228 3.49564 12.8407 4.03042 12.2145 4.71846C11.6051 4.10272 10.8699 3.61716 10.0544 3.29371C9.23887 2.97026 8.36202 2.81726 7.48153 2.8444C6.60104 2.87155 5.73583 3.07826 4.94373 3.45167C4.15164 3.82508 3.44977 4.35699 2.88609 5.01096C2.32242 5.66494 1.9099 6.42574 1.67636 7.24825C1.44283 8.07076 1.39458 8.93289 1.53506 9.77285C1.67555 10.6128 2.00103 11.4088 2.48965 12.1106C2.97827 12.8124 3.61797 13.4033 4.36583 13.8404C3.91816 14.8787 3.76866 16.0258 3.93731 17.1455C4.10596 18.2651 4.58471 19.3106 5.31583 20.1597C6.0531 21.0083 6.99483 21.6494 8.04754 22.0165C9.10026 22.3836 10.2288 22.4625 11.3219 22.2446C12.3615 22.0388 13.3278 21.5647 14.125 20.8754C14.9221 20.1861 15.5223 19.3032 15.8627 18.3149C16.7799 18.6463 17.7583 18.7517 18.725 18.6221C19.6916 18.4925 20.616 18.1316 21.4215 17.5696C22.2271 17.0076 22.8905 16.2602 23.359 15.3903C23.8276 14.5205 24.0877 13.552 24.1173 12.5606C24.147 11.5693 23.9454 10.585 23.5298 9.68852C23.1201 8.80213 22.4851 8.01939 21.6805 7.41187C21.9172 8.19582 22.0179 9.01261 21.9773 9.8296" fill="#303030"/>
<path d="M10.029 17.1068C9.05453 17.1074 8.11233 16.7706 7.35412 16.1572C6.59592 15.5437 6.07161 14.6917 5.87573 13.7407C5.67985 12.7897 5.82413 11.8004 6.28244 10.9508C6.74075 10.1013 7.48487 9.44701 8.38677 9.10852C8.36619 9.04552 8.35086 8.98087 8.34098 8.9152C8.09887 7.46637 8.55487 6.0028 9.56055 4.9114C10.5662 3.82 12.0043 3.25543 13.4606 3.38348C14.9169 3.51152 16.2388 4.31988 17.0454 5.61085C17.852 6.90183 18.0536 8.50661 17.5962 9.98193C17.8307 10.0999 18.0551 10.2345 18.2672 10.3844C19.2823 11.0736 19.9811 12.1477 20.2037 13.3656C20.4264 14.5835 20.1552 15.8393 19.4552 16.8601C18.7551 17.8809 17.6829 18.5858 16.4724 18.8192C15.2618 19.0526 14.0092 18.7949 12.9847 18.1021C12.1249 18.7455 11.0915 19.1071 10.0229 19.1352V17.1094L10.029 17.1068ZM10.029 12.7046C9.55404 12.7043 9.09725 12.8911 8.76206 13.2219C8.42687 13.5526 8.24317 14.0067 8.24636 14.4816C8.24955 14.9564 8.43922 15.4077 8.77903 15.7335C9.11885 16.0594 9.57847 16.2396 10.0534 16.2324C10.5284 16.2252 10.9829 16.0313 11.3136 15.6954C11.6442 15.3595 11.8301 14.9022 11.829 14.4273C11.8279 13.9524 11.6399 13.496 11.3079 13.1616C10.9758 12.8273 10.5204 12.6354 10.0454 12.6365C10.04 12.6365 10.0345 12.6365 10.029 12.6365V12.7046ZM15.1384 13.4731C14.5163 13.4729 13.9193 13.6964 13.4646 14.102C13.0098 14.5076 12.7307 15.0713 12.6722 15.6911C12.6136 16.3109 12.7798 16.9295 13.1394 17.4266C13.499 17.9238 14.0277 18.2659 14.6351 18.386C15.2425 18.5061 15.8749 18.3956 16.4084 18.0748C16.9419 17.754 17.3392 17.2448 17.5268 16.6485C17.7144 16.0521 17.6794 15.4081 17.4281 14.8365C17.1767 14.2649 16.7272 13.8053 16.1632 13.5412C15.8401 13.4008 15.4907 13.3298 15.1384 13.3322V13.4731ZM13.4606 6.66183C12.9356 6.66214 12.4239 6.8348 12.0055 7.15529C11.5871 7.47578 11.2877 7.92758 11.1546 8.43959C11.0214 8.95161 11.0616 9.4942 11.2684 9.97979C11.4752 10.4654 11.8369 10.8652 12.2957 11.119C12.7546 11.3729 13.2843 11.4663 13.7998 11.3841C14.3153 11.3018 14.7894 11.0482 15.1508 10.6645C15.5122 10.2808 15.7394 9.78811 15.7944 9.26567C15.8494 8.74322 15.7295 8.21675 15.4537 7.7667C15.125 7.2253 14.613 6.82931 14.0192 6.67374C13.8376 6.6658 13.6553 6.66183 13.4732 6.66183H13.4606Z" fill="url(#paint0_linear_1_3)"/>
<defs>
<linearGradient id="paint0_linear_1_3" x1="8.34098" y1="19.1352" x2="20.2245" y2="19.1352" gradientUnits="userSpaceOnUse">
<stop stop-color="#1A73E8"/>
<stop offset="1" stop-color="#8AB4F8"/>
</linearGradient>
</defs>
</svg>
